# xmcd CD database file
#
# Track frame offsets:
#	150
#	733
#	10461
#	20465
#	32781
#	46150
#	65918
#	81224
#	96509
#	111790
#	123413
#	135924
#	147458
#	161822
#	172490
#	186823
#	202461
#	217173
#	231440
#	246348
#	265461
#
# Disc length: 3547 seconds
#
# Revision: 0
# Processed by: cddbd v1.4PL0 Copyright (c) Steve Scherf et al.
# Submitted via: CDex 1.40Release
#
DISCID=4c0dd915
DTITLE=Four Wheel drive - Strictly Country 
DYEAR=1999
DGENRE=Country
TTITLE0=Michigan Drinking Council
TTITLE1=Feelin' - Country
TTITLE2=Pop A Top
TTITLE3=Semi Truck
TTITLE4=Walk On By
TTITLE5=Its Not Love(But its not bad)
TTITLE6=I Can't hold Myself In Line
TTITLE7=Truck Drivin' Man
TTITLE8=Six Days On The Road
TTITLE9=The Door Is Always Open
TTITLE10=I Walk The Line
TTITLE11=Go Down Swining
TTITLE12=Slippin' Around
TTITLE13=Empty Bottle (A broken Heart) 
TTITLE14=Pint Of No return
TTITLE15=Third rate Romance
TTITLE16=Truck Stop Rock
TTITLE17=Don't Let Go
TTITLE18=Hot rod Lincoln
TTITLE19=Up Against the wall 
TTITLE20=All Drink
EXTD=YEAR: 1999 ID3G: 2
EXTT0=
EXTT1=
EXTT2=
EXTT3=
EXTT4=
EXTT5=
EXTT6=
EXTT7=
EXTT8=
EXTT9=
EXTT10=
EXTT11=
EXTT12=
EXTT13=
EXTT14=
EXTT15=
EXTT16=
EXTT17=
EXTT18=
EXTT19=
EXTT20=
PLAYORDER=
